HIERARCHY
ROOT Hips
{
	OFFSET -0.001795 -0.223333 0.028219
	CHANNELS 6 Xposition Yposition Zposition Zrotation Yrotation Xrotation 
	JOINT LeftUpLeg
	{
		OFFSET 0.069520 -0.091406 -0.006815
		CHANNELS 3 Zrotation Yrotation Xrotation
		JOINT LeftLeg
		{
			OFFSET 0.034277 -0.375199 -0.004496
			CHANNELS 3 Zrotation Yrotation Xrotation
			JOINT LeftFoot
			{
				OFFSET -0.013596 -0.397961 -0.043693
				CHANNELS 3 Zrotation Yrotation Xrotation
				JOINT LeftToe
				{
					OFFSET 0.026358 -0.055791 0.119288
					CHANNELS 3 Zrotation Yrotation Xrotation
					End Site
					{
						OFFSET 0.000000 0.000000 0.000000
					}
				}
			}
		}
	}
	JOINT RightUpLeg
	{
		OFFSET -0.067670 -0.090522 -0.004320
		CHANNELS 3 Zrotation Yrotation Xrotation
		JOINT RightLeg
		{
			OFFSET -0.038290 -0.382569 -0.008850
			CHANNELS 3 Zrotation Yrotation Xrotation
			JOINT RightFoot
			{
				OFFSET 0.015774 -0.398415 -0.042312
				CHANNELS 3 Zrotation Yrotation Xrotation
				JOINT RightToe
				{
					OFFSET -0.025372 -0.048144 0.123348
					CHANNELS 3 Zrotation Yrotation Xrotation
					End Site
					{
						OFFSET 0.000000 0.000000 0.000000
					}
				}
			}
		}
	}
	JOINT Spine
	{
		OFFSET -0.002533 0.108963 -0.026696
		CHANNELS 3 Zrotation Yrotation Xrotation
		JOINT Spine1
		{
			OFFSET 0.005487 0.135180 0.001092
			CHANNELS 3 Zrotation Yrotation Xrotation
			JOINT Spine2
			{
				OFFSET 0.001457 0.052922 0.025425
				CHANNELS 3 Zrotation Yrotation Xrotation
				JOINT Neck
				{
					OFFSET -0.002778 0.213870 -0.042857
					CHANNELS 3 Zrotation Yrotation Xrotation
					JOINT Head
					{
						OFFSET 0.005152 0.064970 0.051349
						CHANNELS 3 Zrotation Yrotation Xrotation
						End Site
						{
							OFFSET 0.000000 0.000000 0.000000
						}
					}
				}
				JOINT LeftShoulder
				{
					OFFSET 0.078845 0.121749 -0.034090
					CHANNELS 3 Zrotation Yrotation Xrotation
					JOINT LeftArm
					{
						OFFSET 0.090977 0.030469 -0.008868
						CHANNELS 3 Zrotation Yrotation Xrotation
						JOINT LeftForeArm
						{
							OFFSET 0.259612 -0.012772 -0.027456
							CHANNELS 3 Zrotation Yrotation Xrotation
							JOINT LeftHand
							{
								OFFSET 0.249234 0.008986 -0.001171
								CHANNELS 3 Zrotation Yrotation Xrotation
								End Site
								{
									OFFSET 0.000000 0.000000 0.000000
								}
							}
						}
					}
				}
				JOINT RightShoulder
				{
					OFFSET -0.081759 0.118833 -0.038615
					CHANNELS 3 Zrotation Yrotation Xrotation
					JOINT RightArm
					{
						OFFSET -0.096012 0.032551 -0.009143
						CHANNELS 3 Zrotation Yrotation Xrotation
						JOINT RightForeArm
						{
							OFFSET -0.253742 -0.013329 -0.021401
							CHANNELS 3 Zrotation Yrotation Xrotation
							JOINT RightHand
							{
								OFFSET -0.255298 0.007772 -0.005559
								CHANNELS 3 Zrotation Yrotation Xrotation
								End Site
								{
									OFFSET 0.000000 0.000000 0.000000
								}
							}
						}
					}
				}
			}
		}
	}
}
MOTION
Frames: 6
Frame Time: 0.050000
0.000000 0.963287 0.000000 -0.816941 -2.136768 0.893409 4.057257 0.168743 3.589648 -2.332583 0.318883 -3.919734 4.105102 11.351354 13.696049 0.000000 0.000000 0.000000 -1.967671 -0.152381 2.600120 2.054313 -0.287930 -3.793043 -1.595355 -8.791048 13.888471 0.000000 0.000000 0.000000 2.761994 -0.010944 -0.291648 -0.623179 0.705119 -23.391329 -1.435516 2.529186 28.611843 4.656221 -1.632673 -19.853981 0.000000 0.000000 0.000000 5.377522 -1.991442 0.807546 -8.524782 -16.227094 -1.231525 14.941214 -5.308414 -0.469741 0.000000 0.000000 0.000000 -4.613437 -0.850873 -0.181257 11.948961 15.680447 -1.109895 -14.765381 5.042989 -0.150823 0.000000 0.000000 0.000000 
-0.000008 0.963297 -0.000030 -0.751970 -2.116615 1.100188 3.465536 0.198382 3.711286 -1.770881 0.291370 -4.819796 3.781418 11.004003 14.622435 0.000000 0.000000 0.000000 -1.548308 -0.165580 2.501606 1.309266 -0.245658 -4.092545 -1.936516 -9.275757 13.389738 0.000000 0.000000 0.000000 2.504799 -0.016161 -0.204790 -0.266533 0.631130 -23.930531 -1.276914 2.981588 28.748105 4.832012 -1.590020 -20.537685 0.000000 0.000000 0.000000 5.202324 -1.737077 0.757309 -8.951317 -15.606173 -1.228999 11.986127 -6.489235 -0.435000 0.000000 0.000000 0.000000 -4.469202 -0.986749 -0.253447 13.992633 15.667192 -1.119844 -17.096141 6.696786 -0.366256 0.000000 0.000000 0.000000 
-0.000006 0.963118 -0.000006 -0.657219 -0.988178 1.589542 3.449905 0.099080 2.372886 -1.749166 0.268443 -3.968530 2.877221 9.596877 13.880101 0.000000 0.000000 0.000000 -1.829435 -0.087751 1.683838 1.184468 -0.213429 -3.130289 -1.608654 -8.495331 13.250471 0.000000 0.000000 0.000000 1.751545 -0.003005 -0.360649 0.492517 0.471734 -24.019446 -1.531682 1.923279 28.715281 3.706110 -0.896540 -20.788745 0.000000 0.000000 0.000000 3.496694 -1.474191 0.616981 -10.119404 -14.771010 -1.283778 13.365343 -6.877573 -0.534484 0.000000 0.000000 0.000000 -4.634916 -0.419125 -0.057523 14.512324 13.539564 -1.254346 -15.624198 8.152491 -0.488696 0.000000 0.000000 0.000000 
0.000089 0.963840 -0.000073 -0.962238 -1.693549 1.603946 3.567945 0.145627 3.086229 -1.725420 0.291134 -5.081272 3.056088 9.871767 14.271050 0.000000 0.000000 0.000000 -1.810741 -0.092133 1.766891 1.716672 -0.264266 -3.685737 -1.624895 -8.686472 13.514047 0.000000 0.000000 0.000000 2.210142 -0.023855 -0.092567 0.563506 0.465882 -24.734271 -1.567063 2.521705 29.018845 3.773731 -0.882523 -21.135218 0.000000 0.000000 0.000000 1.014945 -0.554084 0.229409 -10.268884 -15.697908 -1.292429 14.090090 -6.939711 -0.583357 0.000000 0.000000 0.000000 -3.349088 -0.801932 -0.212289 15.288033 13.241287 -1.314493 -15.146900 8.159155 -0.458321 0.000000 0.000000 0.000000 
0.000192 0.963587 -0.000100 -1.086529 -2.035616 1.246763 3.531206 0.222215 4.171356 -1.269830 0.289588 -6.237903 2.915508 9.722747 14.802257 0.000000 0.000000 0.000000 -1.752856 -0.144233 2.367746 1.500074 -0.261125 -4.201179 -1.012985 -7.759732 13.999126 0.000000 0.000000 0.000000 2.292498 -0.007582 -0.326187 0.570068 0.428177 -23.891116 -1.536131 2.990041 29.063420 3.857951 -0.858082 -21.416345 0.000000 0.000000 0.000000 -0.222373 -1.000445 0.332362 -12.839738 -15.157184 -1.370570 15.094030 -7.168018 -0.662778 0.000000 0.000000 0.000000 -1.747153 -0.551627 -0.169365 17.160553 12.954319 -1.407535 -15.337170 8.300292 -0.463683 0.000000 0.000000 0.000000 
0.000210 0.963720 -0.000095 -1.232651 -2.055834 0.822869 3.838697 0.269661 5.120774 -1.307503 0.308282 -6.904980 3.090240 10.095747 15.344860 0.000000 0.000000 0.000000 -1.663027 -0.230794 3.333476 1.382986 -0.262701 -4.540303 -0.461123 -6.819321 14.178202 0.000000 0.000000 0.000000 2.176039 -0.027294 0.063013 0.690653 0.383831 -23.395716 -1.521901 2.642449 28.976449 4.020017 -0.963268 -21.984343 0.000000 0.000000 0.000000 -2.705986 -0.067694 -0.117468 -15.040483 -15.516849 -1.426311 16.201820 -9.135519 -0.918974 0.000000 0.000000 0.000000 -0.075325 -0.639853 -0.230172 20.006459 13.405885 -1.440198 -16.489574 9.487985 -0.645038 0.000000 0.000000 0.000000 
